<?xml version="1.0" encoding="UTF-8"?>
<svg width="113px" height="22px" viewBox="0 0 113 22" version="1.1" xmlns="http://www.w3.org/2000/svg" xmlns:xlink="http://www.w3.org/1999/xlink">
    <!-- Generator: Sketch 64 (93537) - https://sketch.com -->
    <title>Group 3</title>
    <desc>Created with Sketch.</desc>
    <g id="Page-1" stroke="none" stroke-width="1" fill="none" fill-rule="evenodd">
        <g id="Group-3" transform="translate(0.000000, 1.000000)">
            <g id="Group-2">
                <text id="integration" font-family="Arial-BoldMT, Arial" font-size="18" font-weight="bold" fill="#000000">
                    <tspan x="21" y="17">integration</tspan>
                </text>
                <g id="noun_life-preserver_1391542">
                    <g id="Group">
                        <g id="Orange" transform="translate(0.502075, 0.383581)" fill="#F98125" stroke="#000000">
                            <path d="M0.453405628,7.2378922 L4.39246813,7.9691712 C4.19518789,8.9512347 4.09654776,9.68669602 4.09654776,10.1755552 C4.09654776,10.6644143 4.19518789,11.3162988 4.39246813,12.1312087 L0.453405628,13.1132181 C0.151135209,11.9414637 -4.00574428e-15,10.8746317 -4.00574428e-15,9.91272193 C-4.00574428e-15,8.9508122 0.151135209,8.05920229 0.453405628,7.2378922 Z" id="Path-2"></path>
                            <path d="M8.61911544,14.9788355 L12.5581779,15.7101145 C12.3608977,16.692178 12.2622576,17.4276393 12.2622576,17.9164985 C12.2622576,18.4053576 12.3608977,19.0572421 12.5581779,19.872152 L8.61911544,20.8541614 C8.31684502,19.682407 8.16570981,18.615575 8.16570981,17.6536652 C8.16570981,16.6917555 8.31684502,15.8001456 8.61911544,14.9788355 Z" id="Path-2" transform="translate(10.361944, 17.916498) rotate(-90.000000) translate(-10.361944, -17.916498) "></path>
                            <path d="M15.9019889,7.05122401 L19.8410514,7.78250301 C19.6437712,8.76456651 19.5451311,9.50002783 19.5451311,9.98888697 C19.5451311,10.4777461 19.6437712,11.1296306 19.8410514,11.9445405 L15.9019889,12.9265499 C15.5997185,11.7547955 15.4485833,10.6879635 15.4485833,9.72605374 C15.4485833,8.76414401 15.5997185,7.8725341 15.9019889,7.05122401 Z" id="Path-2" transform="translate(17.644817, 9.988887) rotate(-180.000000) translate(-17.644817, -9.988887) "></path>
                            <path d="M8.17410709,-0.704697987 L12.1131696,0.0265810154 C11.9158894,1.00864451 11.8172492,1.74410583 11.8172492,2.23296497 C11.8172492,2.72182411 11.9158894,3.37370864 12.1131696,4.18861855 L8.17410709,5.17062793 C7.87183667,3.99887353 7.72070147,2.93204147 7.72070147,1.97013174 C7.72070147,1.00822201 7.87183667,0.116612099 8.17410709,-0.704697987 Z" id="Path-2" transform="translate(9.916936, 2.232965) rotate(-270.000000) translate(-9.916936, -2.232965) "></path>
                        </g>
                        <g id="White" transform="translate(0.823504, 0.803247)" fill="#D8D8D8" stroke="#000000">
                            <path d="M0.0796957336,6.63155728 L4.07103961,7.54950447 C4.64363827,6.64223414 5.12767867,5.99618393 5.52316079,5.61135382 C5.91864292,5.22652371 6.61924193,4.71984192 7.62495781,4.09130845 L6.65784405,0.0704697987 C4.68031052,0.934783948 3.31613283,1.74137829 2.565311,2.49025282 C1.81448916,3.23912736 0.985950738,4.61956217 0.0796957336,6.63155728 Z" id="Path-3"></path>
                            <path d="M11.7393613,6.66247961 L15.7307052,7.5804268 C16.3033039,6.67315648 16.7873443,6.02710626 17.1828264,5.64227615 C17.5783085,5.25744605 18.2789075,4.75076426 19.2846234,4.12223079 L18.3175097,0.101392134 C16.3399761,0.965706283 14.9757984,1.77230062 14.2249766,2.52117516 C13.4741548,3.27004969 12.6456164,4.65048451 11.7393613,6.66247961 Z" id="Path-3" transform="translate(15.511992, 3.840909) rotate(-270.000000) translate(-15.511992, -3.840909) "></path>
                            <path d="M11.7062491,18.4630923 L15.6975929,19.3810395 C16.2701916,18.4737692 16.754232,17.827719 17.1497141,17.4428889 C17.5451962,17.0580588 18.2457953,16.551377 19.2515111,15.9228435 L18.2843974,11.9020049 C16.3068638,12.766319 14.9426862,13.5729134 14.1918643,14.3217879 C13.4410425,15.0706624 12.6125041,16.4510972 11.7062491,18.4630923 Z" id="Path-3" transform="translate(15.478880, 15.641522) rotate(-180.000000) translate(-15.478880, -15.641522) "></path>
                            <path d="M-2.66453526e-15,18.2791435 L3.99134387,19.1970907 C4.56394254,18.2898204 5.04798293,17.6437702 5.44346506,17.2589401 C5.83894719,16.87411 6.53954619,16.3674282 7.54526207,15.7388947 L6.57814832,11.7180561 C4.60061479,12.5823702 3.2364371,13.3889646 2.48561526,14.1378391 C1.73479343,14.8867136 0.906255004,16.2671484 -2.66453526e-15,18.2791435 Z" id="Path-3" transform="translate(3.772631, 15.457573) rotate(-90.000000) translate(-3.772631, -15.457573) "></path>
                        </g>
                        <path d="M10.5079985,0.0544361304 C13.3946406,0.0544361304 16.0080444,1.22449647 17.8997724,3.11623265 C19.7915086,5.00796883 20.961569,7.62135226 20.961569,10.5080066 C20.961569,13.3946487 19.7915086,16.0080526 17.8997724,17.8997806 C16.0080363,19.7915168 13.3946528,20.9615771 10.5079985,20.9615771 C7.62135635,20.9615771 5.00795249,19.7915168 3.11622448,17.8997806 C1.2244883,16.0080444 0.0544279636,13.394661 0.0544279636,10.5080066 C0.0544279636,7.62136451 1.2244883,5.00796066 3.11622448,3.11623265 C5.00796066,1.22449647 7.6213441,0.0544361304 10.5079985,0.0544361304 Z M17.4378146,3.57817411 C15.6643548,1.80471432 13.214288,0.707784031 10.5079985,0.707784031 C7.80171712,0.707784031 5.35161349,1.80471432 3.57818228,3.57817411 C1.80472249,5.35163391 0.707792198,7.80170078 0.707792198,10.5079903 C0.707792198,13.2142716 1.80472249,15.6643753 3.57818228,17.4378065 C5.35164207,19.2112663 7.80170895,20.3081966 10.5079985,20.3081966 C13.2142798,20.3081966 15.6643834,19.2112663 17.4378146,17.4378065 C19.2112744,15.6643467 20.3082047,13.2142798 20.3082047,10.5079903 C20.3082047,7.80170895 19.2112744,5.35160532 17.4378146,3.57817411 Z" id="Shape" fill="#000000" fill-rule="nonzero"></path>
                        <path d="M13.8101821,0.894351608 C13.8468204,0.718169404 13.7337065,0.545604707 13.5575243,0.508966182 C13.3813421,0.472327901 13.2087774,0.585441778 13.1721389,0.761623982 L12.3123371,4.89270192 C12.2756988,5.06888413 12.3888127,5.24144882 12.5649949,5.27808735 C12.7411771,5.31472563 12.9137418,5.20161175 12.9503803,5.02542955 L13.8101821,0.894351608 Z M8.06562067,5.02542955 C8.10225895,5.20161175 8.27482389,5.31472588 8.45100609,5.27808735 C8.6271883,5.24144907 8.74030242,5.06888413 8.70366389,4.89270192 L7.84386214,0.761623982 C7.80722386,0.585441778 7.63465892,0.472327656 7.45847671,0.508966182 C7.28229451,0.545604462 7.16918039,0.718169404 7.20581891,0.894351608 L8.06562067,5.02542955 Z" id="Shape" fill="#000000" fill-rule="nonzero"></path>
                        <path d="M10.5079985,4.2412079 C12.2384843,4.2412079 13.8052207,4.94267079 14.9392898,6.07673982 C16.0733547,7.21078844 16.7748217,8.77752488 16.7748217,10.5080311 C16.7748217,12.238517 16.0733588,13.8052534 14.9392898,14.9393224 C13.8052411,16.0733874 12.2385047,16.7748544 10.5079985,16.7748544 C8.77751262,16.7748544 7.21077619,16.0733915 6.07670716,14.9393224 C4.9426422,13.8052738 4.24117523,12.2385374 4.24117523,10.5080311 C4.24117523,8.77754529 4.94263812,7.21080886 6.07670716,6.07673982 C7.21075577,4.94267487 8.77749221,4.2412079 10.5079985,4.2412079 Z M14.4773279,6.53868129 C13.4615352,5.52287231 12.0581399,4.8945558 10.5079985,4.8945558 C8.95785706,4.8945558 7.55446169,5.52287231 6.53866904,6.53868129 C5.52286006,7.55447394 4.89454355,8.95786931 4.89454355,10.5080107 C4.89454355,12.0581521 5.52286006,13.4615475 6.53866904,14.4773401 C7.55446169,15.4931491 8.95785706,16.1214656 10.5079985,16.1214656 C12.0581399,16.1214656 13.4615352,15.4931491 14.4773279,14.4773401 C15.4931369,13.4615475 16.1214534,12.0581521 16.1214534,10.5080107 C16.1214534,8.95786931 15.4931369,7.55447394 14.4773279,6.53868129 Z" id="Shape" fill="#000000" fill-rule="nonzero"></path>
                        <path d="M20.1216453,13.8101821 C20.2978275,13.8468204 20.4703922,13.7337065 20.5070307,13.5575243 C20.543669,13.3813421 20.4305551,13.2087774 20.2543729,13.1721389 L16.123295,12.3123371 C15.9471128,12.2756988 15.7745481,12.3888127 15.7379096,12.5649949 C15.7012713,12.7411771 15.8143852,12.9137418 15.9905674,12.9503803 L20.1216453,13.8101821 Z M15.9905674,8.06562067 C15.8143852,8.10225895 15.701271,8.27482389 15.7379096,8.45100609 C15.7745478,8.6271883 15.9471128,8.74030242 16.123295,8.70366389 L20.2543729,7.84386214 C20.4305551,7.80722386 20.5436693,7.63465892 20.5070307,7.45847671 C20.4703925,7.28229451 20.2978275,7.16918039 20.1216453,7.20581891 L15.9905674,8.06562067 Z" id="Shape" fill="#000000" fill-rule="nonzero"></path>
                        <path d="M7.20581483,20.1216453 C7.16917655,20.2978275 7.28229043,20.4703922 7.45847263,20.5070307 C7.63465483,20.543669 7.80721953,20.4305551 7.84385806,20.2543729 L8.70365981,16.123295 C8.74029809,15.9471128 8.62718421,15.7745481 8.45100201,15.7379096 C8.27481981,15.7012713 8.10225511,15.8143852 8.06561659,15.9905674 L7.20581483,20.1216453 Z M12.9503762,15.9905674 C12.913738,15.8143852 12.741173,15.701271 12.5649908,15.7379096 C12.3888086,15.7745478 12.2756945,15.9471128 12.312333,16.123295 L13.1721348,20.2543729 C13.2087731,20.4305551 13.381338,20.5436693 13.5575202,20.5070307 C13.7337024,20.4703925 13.8468165,20.2978275 13.810178,20.1216453 L12.9503762,15.9905674 L12.9503762,15.9905674 Z" id="Shape" fill="#000000" fill-rule="nonzero"></path>
                        <path d="M0.894351608,7.20581483 C0.718169404,7.16917655 0.545604707,7.28229043 0.508966182,7.45847263 C0.472327901,7.63465483 0.585441778,7.80721953 0.761623982,7.84385806 L4.89270192,8.70365981 C5.06888413,8.74029809 5.24144882,8.62718421 5.27808735,8.45100201 C5.31472563,8.27481981 5.20161175,8.10225511 5.02542955,8.06561659 L0.894351608,7.20581483 Z M5.27808735,12.5649908 C5.24144907,12.3888086 5.06888413,12.2756945 4.89270192,12.312333 L0.761623982,13.1721348 C0.585441778,13.2087731 0.472327656,13.381338 0.508966182,13.5575202 C0.545604462,13.7337024 0.718169404,13.8468165 0.894351608,13.810178 L5.02542955,12.9503762 C5.20161175,12.913738 5.31472588,12.741173 5.27808735,12.5649908 Z" id="Shape" fill="#000000" fill-rule="nonzero"></path>
                    </g>
                </g>
            </g>
            <text id="re" font-family="Arial-BoldMT, Arial" font-size="9" font-weight="bold" fill="#D8D8D8">
                <tspan x="6" y="13">re</tspan>
            </text>
        </g>
    </g>
</svg>